<svg viewBox="0 0 200 200" xmlns="http://www.w3.org/2000/svg">
  <!-- Sun rays (outer) -->
  <g stroke="#FFD700" stroke-width="6" stroke-linecap="round">
    <line x1="100" y1="15" x2="100" y2="35" transform="rotate(0 100 100)"/>
    <line x1="100" y1="15" x2="100" y2="35" transform="rotate(30 100 100)"/>
    <line x1="100" y1="15" x2="100" y2="35" transform="rotate(60 100 100)"/>
    <line x1="100" y1="15" x2="100" y2="35" transform="rotate(90 100 100)"/>
    <line x1="100" y1="15" x2="100" y2="35" transform="rotate(120 100 100)"/>
    <line x1="100" y1="15" x2="100" y2="35" transform="rotate(150 100 100)"/>
    <line x1="100" y1="15" x2="100" y2="35" transform="rotate(180 100 100)"/>
    <line x1="100" y1="15" x2="100" y2="35" transform="rotate(210 100 100)"/>
    <line x1="100" y1="15" x2="100" y2="35" transform="rotate(240 100 100)"/>
    <line x1="100" y1="15" x2="100" y2="35" transform="rotate(270 100 100)"/>
    <line x1="100" y1="15" x2="100" y2="35" transform="rotate(300 100 100)"/>
    <line x1="100" y1="15" x2="100" y2="35" transform="rotate(330 100 100)"/>
  </g>
  
  <!-- Sun rays (middle) -->
  <g stroke="#FF8F00" stroke-width="4" stroke-linecap="round">
    <line x1="100" y1="40" x2="100" y2="50" transform="rotate(15 100 100)"/>
    <line x1="100" y1="40" x2="100" y2="50" transform="rotate(45 100 100)"/>
    <line x1="100" y1="40" x2="100" y2="50" transform="rotate(75 100 100)"/>
    <line x1="100" y1="40" x2="100" y2="50" transform="rotate(105 100 100)"/>
    <line x1="100" y1="40" x2="100" y2="50" transform="rotate(135 100 100)"/>
    <line x1="100" y1="40" x2="100" y2="50" transform="rotate(165 100 100)"/>
    <line x1="100" y1="40" x2="100" y2="50" transform="rotate(195 100 100)"/>
    <line x1="100" y1="40" x2="100" y2="50" transform="rotate(225 100 100)"/>
    <line x1="100" y1="40" x2="100" y2="50" transform="rotate(255 100 100)"/>
    <line x1="100" y1="40" x2="100" y2="50" transform="rotate(285 100 100)"/>
    <line x1="100" y1="40" x2="100" y2="50" transform="rotate(315 100 100)"/>
    <line x1="100" y1="40" x2="100" y2="50" transform="rotate(345 100 100)"/>
  </g>
  
  <!-- Main sun body -->
  <circle cx="100" cy="100" r="45" fill="#FFEB3B" stroke="#FF8F00" stroke-width="3"/>
  
  <!-- Inner gradient circle -->
  <circle cx="100" cy="100" r="35" fill="#FFF59D" opacity="0.7"/>
</svg>